<svg xmlns="http://www.w3.org/2000/svg" width="22" height="22" viewBox="0 0 22 22" fill="none">
  <g clip-path="url(#clip0_2001_111)">
    <path d="M21.2482 11.0188C21.2482 13.5862 21.2536 16.1536 21.2464 18.721C21.241 20.3682 20.075 21.6767 18.3802 21.9555C18.1618 21.9914 17.9344 21.9949 17.7106 21.9949C13.2399 21.9966 8.76915 22 4.29842 21.9949C2.57294 21.9932 1.23191 21.0216 0.852879 19.5044C0.784293 19.2325 0.759024 18.9451 0.759024 18.6646C0.75361 14.8759 0.75722 11.0838 0.75 7.29342C0.75 6.98554 0.856489 6.75634 1.0821 6.54253C3.28227 4.46602 5.47702 2.3861 7.66816 0.301042C7.88836 0.0923651 8.12119 0 8.43344 0C11.527 0.00684186 14.6224 0 17.716 0.00513139C19.7989 0.0102628 21.2464 1.39745 21.2482 3.37646C21.25 5.92334 21.2482 8.47193 21.2482 11.0188ZM10.3141 9.06033C10.1788 9.06033 10.0849 9.06033 9.99106 9.06033C9.07779 9.07744 8.38471 9.659 8.28544 10.5211C8.24934 10.8307 8.24934 11.1488 8.28183 11.4584C8.37568 12.3461 9.0814 12.9345 10.0308 12.9431C10.5217 12.9465 11.0126 12.9431 11.5036 12.9431C12.0884 12.9431 12.3747 13.2242 12.3627 13.7863C12.3555 14.1541 12.2797 14.2311 11.888 14.2328C11.056 14.2362 10.2239 14.2294 9.39003 14.2362C8.91174 14.2396 8.62656 14.4859 8.61934 14.8725C8.61212 15.2745 8.90271 15.5276 9.39364 15.5362C9.68965 15.5413 9.98384 15.5362 10.3123 15.5362C10.3123 15.7517 10.3069 15.9313 10.3123 16.1109C10.3286 16.5505 10.6047 16.8293 11.009 16.8224C11.4025 16.8156 11.666 16.5453 11.6841 16.1194C11.6913 15.9313 11.6841 15.7431 11.6841 15.531C11.8465 15.531 11.9638 15.5379 12.0793 15.531C12.9782 15.4694 13.6207 14.9033 13.7146 14.0617C13.7507 13.7419 13.7489 13.4135 13.711 13.0936C13.6081 12.2401 12.9312 11.6722 12.0234 11.6551C11.5108 11.6448 10.9982 11.6517 10.4874 11.6517C9.91345 11.6517 9.63008 11.3763 9.6373 10.8255C9.64272 10.4355 9.73296 10.35 10.1517 10.3483C10.9314 10.3466 11.7093 10.3483 12.489 10.3483C13.0847 10.3483 13.377 10.1379 13.3807 9.71031C13.3843 9.28269 13.0828 9.05862 12.5017 9.05862C12.2382 9.05862 11.9746 9.05862 11.6877 9.05862C11.6877 8.84139 11.6931 8.66008 11.6877 8.48049C11.6714 8.03748 11.4025 7.76893 10.9892 7.77406C10.5903 7.77919 10.3304 8.04261 10.3141 8.47193C10.3069 8.65324 10.3141 8.83455 10.3141 9.06033ZM3.16856 6.46214C4.00242 6.46214 4.81101 6.47753 5.6178 6.45872C6.61952 6.43477 7.45699 5.74887 7.54363 4.8047C7.61763 3.98367 7.5725 3.15239 7.57972 2.32623C7.57972 2.31597 7.54904 2.304 7.55446 2.30913C6.09971 3.68605 4.65038 5.05956 3.16856 6.46214Z" fill="#606568"/>
  </g>
  <defs>
    <clipPath id="clip0_2001_111">
      <rect width="20.5" height="22" fill="white" transform="translate(0.75)"/>
    </clipPath>
  </defs>
</svg>