<svg
  xmlns="http://www.w3.org/2000/svg"
  width="34"
  height="34"
  viewBox="0 0 34 34"
  fill="none"
>
  <g clipPath="url(#clip0_2162_3642)">
    <path
      d="M34.0001 14.5143C33.7968 15.2428 33.3971 15.7942 32.6297 15.9879C32.4186 16.0412 32.1926 16.0542 31.9732 16.0547C27.9674 16.0584 23.9616 16.0593 19.9559 16.0565C18.6876 16.0556 17.9428 15.3012 17.9424 14.0189C17.9401 10.0346 17.941 6.04975 17.9419 2.06539C17.9419 0.563499 18.8729 -0.18907 20.3615 0.0403153C22.8653 0.426331 25.1537 1.33878 27.2222 2.79526C29.542 4.42876 31.3162 6.53493 32.541 9.10034C33.2377 10.5596 33.6974 12.0935 33.9349 13.6941C33.946 13.7691 33.9779 13.841 34.0001 13.9147V14.5138V14.5143Z"
      fill="#00B7C8"
    />
    <path
      d="M16.1638 9.20693C16.1638 11.0717 16.1666 12.9359 16.1629 14.8007C16.161 15.7775 16.4766 16.6024 17.268 17.2109C17.8192 17.6349 18.4531 17.7785 19.1346 17.7781C22.8304 17.7757 26.5261 17.7757 30.2219 17.7781C31.2854 17.7785 32.082 18.3944 32.1809 19.3722C32.2266 19.8249 32.143 20.3018 32.0543 20.7554C31.2452 24.895 29.1666 28.2658 25.7998 30.7789C22.3189 33.3772 18.3723 34.4453 14.0694 33.8318C8.12318 32.9838 3.88132 29.7395 1.36836 24.2824C0.146306 21.628 -0.213612 18.8077 0.115812 15.8985C0.437844 13.056 1.44829 10.4762 3.14254 8.19253C5.63979 4.82729 8.95436 2.6998 13.0682 1.8703C13.5922 1.76465 14.1457 1.6905 14.6729 1.74009C15.4791 1.81608 16.0737 2.5288 16.1426 3.34717C16.1564 3.51261 16.1624 3.67943 16.1629 3.8458C16.1643 5.63268 16.1638 7.41957 16.1638 9.20646V9.20693Z"
      fill="#00B7C8"
    />
  </g>
  <defs>
    <clipPath id="clip0_2162_3642">
      <rect width="34" height="34" fill="white" />
    </clipPath>
  </defs>
</svg>
