
<svg
                    xmlns="http://www.w3.org/2000/svg"
                    width="34"
                    height="25"
                    viewBox="0 0 34 25"
                    fill="none"
                  >
                    <g clipPath="url(#clip0_3046_323)">
                      <path
                        d="M0 10.8638C0.384524 10.0866 0.744762 9.92876 1.60286 10.1635C1.93071 10.2526 2.26262 10.3416 2.61881 10.4388C2.76048 10.0988 2.8981 9.779 3.03167 9.45519C3.3231 8.75091 3.59429 8.04257 3.90595 7.34638C4.39976 6.24948 5.25786 5.6221 6.4681 5.61805C10.5279 5.59781 14.5917 5.59376 18.6514 5.61805C19.886 5.62614 20.7602 6.26567 21.246 7.399C21.675 8.39876 22.0798 9.41472 22.5048 10.4469C22.9257 10.3335 23.3224 10.1919 23.7312 10.1352C24.0226 10.0947 24.3343 10.1554 24.6257 10.208C24.7269 10.2283 24.824 10.3457 24.901 10.4347C25.3543 10.9892 25.241 12.4545 24.6702 12.8835C24.4031 13.0859 24.0469 13.175 23.7312 13.3166C23.8931 13.8833 24.1157 14.4945 24.2412 15.1259C24.3707 15.7816 24.4679 16.4576 24.48 17.1254C24.5124 19.1007 24.4921 21.0759 24.4921 23.0511C24.4921 24.0995 23.974 24.6176 22.9217 24.6216C22.4562 24.6216 21.9907 24.6297 21.5293 24.6216C20.6064 24.6014 20.0762 24.0671 20.064 23.1442C20.06 22.6828 20.064 22.2173 20.064 21.7276H5.05143C5.05143 22.1769 5.05143 22.6221 5.05143 23.0714C5.05143 24.1035 4.53738 24.6176 3.50524 24.6257C3.0519 24.6257 2.59857 24.6297 2.14524 24.6257C1.16976 24.6135 0.643571 24.0995 0.643571 23.1321C0.643571 20.9909 0.639524 18.8497 0.659762 16.7085C0.671905 15.6278 0.943095 14.5916 1.33167 13.5878C1.37214 13.4866 1.40857 13.3854 1.46119 13.2478C0.716429 13.2357 0.255 12.8552 0 12.1995V10.8759L0 10.8638ZM12.5517 13.4866C15.2717 13.4866 17.9957 13.4866 20.7157 13.4866C21.5374 13.4866 21.7924 13.094 21.4807 12.3371C20.8574 10.8192 20.234 9.30138 19.6026 7.78352C19.3071 7.07114 18.7607 6.68257 17.9876 6.67853C14.369 6.67043 10.7545 6.67043 7.13595 6.67853C6.375 6.67853 5.82857 7.0671 5.53714 7.75924C4.88548 9.30138 4.25405 10.8557 3.62262 12.4059C3.34738 13.0778 3.60238 13.4583 4.32286 13.4907C4.42405 13.4947 4.52119 13.4907 4.62238 13.4907C7.26548 13.4907 9.90857 13.4907 12.5557 13.4907L12.5517 13.4866ZM19.469 19.1492C20.0762 19.1492 20.6874 19.1533 21.2945 19.1492C21.7114 19.1452 21.9057 18.9509 21.9138 18.5421C21.9219 17.9997 21.9219 17.4614 21.9138 16.919C21.9098 16.4819 21.7195 16.2916 21.2864 16.2876C20.0924 16.2835 18.8943 16.2835 17.7002 16.2876C17.2631 16.2876 17.0688 16.4819 17.0648 16.9109C17.0567 17.4411 17.0607 17.9714 17.0648 18.5016C17.0688 18.959 17.255 19.1452 17.7083 19.1492C18.2952 19.1533 18.8821 19.1492 19.469 19.1492ZM5.58571 19.1492C6.18071 19.1492 6.77976 19.1492 7.37476 19.1492C7.82809 19.1492 8.02238 18.955 8.03048 18.5097C8.03857 17.9795 8.03857 17.4533 8.03048 16.923C8.02643 16.4859 7.83214 16.2876 7.40714 16.2876C6.205 16.2835 4.99881 16.2835 3.79667 16.2876C3.37571 16.2876 3.18952 16.4778 3.18143 16.8947C3.17333 17.4452 3.17333 17.9957 3.18143 18.5461C3.18548 18.959 3.37571 19.1452 3.79667 19.1492C4.39167 19.1573 4.99071 19.1492 5.58571 19.1492Z"
                        fill="#383E42"
                      />
                      <path
                        d="M33.9999 8.34629C33.923 8.51225 33.8542 8.69034 33.7611 8.8482C33.4414 9.38248 32.9597 9.66177 32.3364 9.67391C31.6159 9.68605 30.8995 9.67391 30.179 9.67796C30.0616 9.67796 29.9402 9.67796 29.7904 9.67796V10.1394C29.7904 14.5877 29.7904 19.0361 29.7904 23.4844C29.7904 23.6503 29.7864 23.8163 29.754 23.9782C29.6933 24.2899 29.4504 24.468 29.1347 24.4558C28.8311 24.4437 28.5964 24.2291 28.5599 23.9215C28.5437 23.792 28.5478 23.6584 28.5478 23.5249C28.5478 19.0522 28.5478 14.5837 28.5478 10.1111C28.5478 9.98153 28.5478 9.85201 28.5478 9.67796C28.0945 9.67796 27.6654 9.67796 27.2364 9.67796C26.8599 9.67796 26.4835 9.67796 26.1071 9.67796C25.0628 9.66986 24.3464 9.03034 24.3342 7.98605C24.3059 5.90153 24.3099 3.81296 24.3342 1.72844C24.3464 0.785341 24.909 0.206531 25.844 0.0527218C25.8845 0.0446266 25.9249 0.0203409 25.9654 0.00415039C28.1106 0.00415039 30.2599 0.00415039 32.4052 0.00415039C33.2268 0.137722 33.7611 0.59915 33.9999 1.39653V8.35034V8.34629ZM26.8883 4.86939V6.98629C26.8883 7.8282 26.9085 7.84439 27.7666 7.81201C28.058 7.79986 28.1875 7.67439 28.1835 7.38296C28.1754 6.96605 28.1875 6.5451 28.1835 6.1282C28.1795 5.8651 28.2847 5.75582 28.5599 5.75986C28.9687 5.76391 29.3816 5.77201 29.7823 5.71939C30.8671 5.57772 31.3933 4.97867 31.4378 3.88986C31.4823 2.81725 30.944 2.10891 29.8835 1.99963C28.9971 1.90653 28.0985 1.93891 27.204 1.92272C26.9409 1.92272 26.8842 2.10486 26.8842 2.32748C26.8842 3.17748 26.8842 4.02344 26.8842 4.87344L26.8883 4.86939Z"
                        fill="#383E42"
                      />
                      <path
                        d="M28.1836 3.82906C28.1836 3.22191 28.4926 2.94398 29.1105 2.99525C29.2076 3.00334 29.3088 3.01953 29.406 3.03167C30.0374 3.10858 30.3531 3.65501 30.0657 4.22572C29.9929 4.37144 29.8026 4.5212 29.6488 4.54953C29.2603 4.61834 28.8595 4.62239 28.4669 4.64667C28.2686 4.65882 28.1917 4.53334 28.1876 4.35525C28.1876 4.17715 28.1876 4.0031 28.1876 3.82501L28.1836 3.82906Z"
                        fill="#383E42"
                      />
                    </g>
                    <defs>
                      <clipPath id="clip0_3046_323">
                        <rect width="34" height="24.6176" fill="white" />
                      </clipPath>
                    </defs>
                  </svg>