 <svg
                    xmlns="http://www.w3.org/2000/svg"
                    width="34"
                    height="34"
                    viewBox="0 0 34 34"
                    fill="none"
                  >
                    <g clipPath="url(#clip0_2162_3598)">
                      <path
                        d="M31.5503 20.2723C29.8179 19.3643 27.9931 19.4013 26.1684 19.4272C25.6229 19.4346 25.4991 19.307 25.4991 18.7689C25.4991 15.1132 25.4991 11.4593 25.4991 7.80356V7.31723H6.07156V7.78321C6.07156 16.0174 6.07156 24.2497 6.07156 32.4839C6.07156 33.5749 5.64633 34.0002 4.55922 34.0002C3.49614 34.0002 2.43491 34.0002 1.37183 34.0002C0.488091 34.0002 0 33.5194 0 32.6485C0 22.604 0 12.5632 0 2.52058C0.00184883 1.04867 1.04274 0.00206417 2.50517 0.00206417C11.3592 -0.0016341 20.2114 -0.0016341 29.0655 0.00206417C30.4798 0.00206417 31.5632 1.02833 31.5651 2.40779C31.5743 8.28803 31.5706 14.1701 31.5688 20.0504C31.5688 20.1003 31.5595 20.1502 31.5503 20.2704V20.2723Z"
                        fill="#B83826"
                      />
                      <path
                        d="M8.51953 18.214V15.786H8.90594C11.1319 15.786 13.3579 15.7897 15.5821 15.786C17.6583 15.7805 19.4313 16.5054 20.8993 17.9754C22.1066 19.1829 23.3176 20.3867 24.5175 21.5997C24.6987 21.7846 24.8798 21.8623 25.1424 21.8641C26.3681 21.8715 27.6032 21.8124 28.816 21.9455C31.8222 22.2746 34.1573 25.1279 33.9927 28.1549C33.891 30.0225 32.3251 31.5407 30.43 31.5665C28.7605 31.5887 27.091 31.5758 25.4234 31.5684C25.1849 31.5684 25.0518 31.6239 24.9205 31.8476C24.0996 33.2456 22.8628 33.9944 21.2432 33.9908C19.6218 33.9871 18.3904 33.2308 17.5714 31.8328C17.4494 31.6257 17.3255 31.5665 17.1 31.5684C14.4062 31.5758 11.7125 31.5739 9.01872 31.5739H8.53247V21.8808H21.3153C21.2302 21.7643 21.1914 21.694 21.1378 21.6385C20.4593 20.9581 19.7882 20.2702 19.0967 19.6008C18.1556 18.6892 17.0205 18.2232 15.7096 18.2195C13.4596 18.2103 11.2077 18.2177 8.9577 18.2177C8.82089 18.2177 8.68408 18.2177 8.51953 18.2177V18.214ZM23.0698 29.7414C23.0624 28.73 22.2323 27.9163 21.2228 27.9293C20.2337 27.9422 19.4276 28.7651 19.4313 29.7562C19.435 30.7622 20.2652 31.5776 21.2783 31.5684C22.2637 31.5591 23.0791 30.7289 23.0698 29.7414ZM31.556 27.9164C31.5615 27.1101 31.2528 26.2355 30.7628 25.6734C30.6907 25.5901 30.5631 25.5106 30.4578 25.5069C29.9919 25.4903 29.5241 25.4829 29.0582 25.5069C28.437 25.5384 27.9507 26.0543 27.9304 26.6682C27.9101 27.2802 28.3593 27.872 28.9713 27.9053C29.8236 27.9515 30.6796 27.9164 31.556 27.9164Z"
                        fill="#B83826"
                      />
                      <path d="M23.0531 9.74123V13.3354H8.53052V9.74123H23.0531Z" fill="#B83826" />
                    </g>
                    <defs>
                      <clipPath id="clip0_2162_3598">
                        <rect width="34" height="34" fill="white" />
                      </clipPath>
                    </defs>
                  </svg>