<svg
  xmlns="http://www.w3.org/2000/svg"
  width="34"
  height="34"
  viewBox="0 0 34 34"
  fill="none"
>
  <g clipPath="url(#clip0_2162_3620)">
    <path
      d="M2.44961 20.272C4.18197 19.3641 6.00677 19.4011 7.83156 19.427C8.37697 19.4344 8.50084 19.3068 8.50084 18.7687C8.50084 15.113 8.50084 11.4591 8.50084 7.80334V7.31702C14.9662 7.31702 21.4205 7.31702 27.9284 7.31702V7.783C27.9284 16.0172 27.9284 24.2495 27.9284 32.4837C27.9284 33.5747 28.3536 34 29.4407 34C30.5038 34 31.565 34 32.6281 34C33.5118 34 33.9999 33.5192 33.9999 32.6483C33.9999 22.6056 33.9999 12.5649 33.9999 2.52222C33.9999 1.05031 32.959 0.00369686 31.4966 0.00369686C22.6425 -1.4095e-06 13.7903 -1.4095e-06 4.93629 0.00369686C3.52194 0.00369686 2.43852 1.02997 2.43667 2.40942C2.42743 8.28966 2.43113 14.1718 2.43298 20.052C2.43298 20.1019 2.44222 20.1518 2.45146 20.272H2.44961Z"
      fill="#BF9944"
    />
    <path
      d="M25.0442 18.214C22.7942 18.214 20.5423 18.2084 18.2923 18.2158C16.9814 18.2214 15.8463 18.6855 14.9052 19.5971C14.2156 20.2665 13.5426 20.9525 12.8641 21.6349C12.8105 21.6903 12.7716 21.7606 12.6866 21.8771C16.9962 21.8771 21.2393 21.8771 25.4694 21.8771C25.4694 25.1279 25.4694 28.3435 25.4694 31.5702H24.9832C22.2894 31.5702 19.5957 31.5721 16.9019 31.5647C16.6764 31.5647 16.5525 31.622 16.4305 31.8291C15.6115 33.2271 14.3801 33.9834 12.7587 33.9871C11.1373 33.9908 9.90041 33.2419 9.08138 31.8439C8.95011 31.6202 8.81515 31.5628 8.5785 31.5647C6.909 31.5721 5.23951 31.585 3.57186 31.5628C1.67681 31.537 0.110853 30.0207 0.00916682 28.1512C-0.155379 25.1242 2.17969 22.2728 5.18589 21.9418C6.39873 21.8087 7.63375 21.8678 8.85952 21.8604C9.12206 21.8604 9.30324 21.7791 9.48443 21.596C10.6843 20.3811 11.8953 19.1792 13.1026 17.9717C14.5706 16.5035 16.3417 15.7786 18.4198 15.7823C20.6458 15.7879 22.8718 15.7823 25.096 15.7823H25.4824V18.2103C25.3178 18.2103 25.181 18.2103 25.0442 18.2103V18.214ZM12.7236 31.5684C13.7349 31.5776 14.5669 30.7622 14.5706 29.7562C14.5743 28.7651 13.7682 27.9422 12.779 27.9293C11.7696 27.9164 10.9413 28.73 10.9321 29.7414C10.9247 30.7289 11.7382 31.561 12.7236 31.5684ZM5.02874 27.9053C5.64071 27.872 6.09182 27.2821 6.06964 26.6682C6.0493 26.0543 5.56306 25.5384 4.94185 25.5069C4.47594 25.4829 4.00819 25.4903 3.54228 25.5069C3.4369 25.5106 3.31118 25.5901 3.23723 25.6734C2.74729 26.2336 2.43668 27.1101 2.44408 27.9164C3.32042 27.9164 4.17643 27.9515 5.02874 27.9053Z"
      fill="#BF9944"
    />
    <path
      d="M10.947 9.74123C10.947 10.9504 10.947 12.1336 10.947 13.3354C15.7891 13.3354 20.6127 13.3354 25.4696 13.3354V9.74123C20.646 9.74123 15.8131 9.74123 10.947 9.74123Z"
      fill="#BF9944"
    />
  </g>
  <defs>
    <clipPath id="clip0_2162_3620">
      <rect width="34" height="34" fill="white" />
    </clipPath>
  </defs>
</svg>
